<?xml version="1.0" encoding="UTF-8"?><svg id="Calque_2" xmlns="http://www.w3.org/2000/svg" xmlns:xlink="http://www.w3.org/1999/xlink" viewBox="0 0 73 60.7"><defs><style>.cls-1{fill:#fff;}.cls-2{fill:#110b13;}.cls-3{clip-path:url(#clippath-1);}.cls-4{clip-path:url(#clippath);}.cls-5{fill:none;}</style><clipPath id="clippath"><rect class="cls-5" width="73" height="60.7"/></clipPath><clipPath id="clippath-1"><rect class="cls-5" width="73" height="60.7"/></clipPath></defs><g id="Calque_1-2"><g class="cls-4"><path class="cls-1" d="M55.6,35.9l13.7-6.9h-15.2l6.8-3.4,6.8-3.4h-15.2l13.7-6.9,1.8-8.7c.6-2.7-1.2-4.7-4-4.3l-9.2,1.2-6.1,7.8-6.1-7.8-6.1,7.8-6.1-7.8-6.1,7.8-6.1-7.8-9.2-1.2c-2.8-.4-4.6,1.6-4,4.3l1.9,8.7,13.7,6.9H5.4l6.8,3.4,6.8,3.4H3.9l13.7,6.9H2.3l5.9,12.2,19.8,10.5h17.1l19.8-10.5,5.9-12.2h-15.2Zm-32.8-6.3s-.5-1.9-1.1-4.1c-.6-2.3,.8-4.1,3.2-4.1h4.3s-6.4,8.2-6.4,8.2Zm13.7,19.8l-8-8.4h15.9s-7.9,8.4-7.9,8.4Zm14.8-23.9c-.6,2.3-1.1,4.1-1.1,4.1l-6.4-8.2h4.3c2.4-.1,3.8,1.8,3.2,4.1"/></g><path d="M44.4,41.1l-7.9,8.3-8-8.3h15.9Zm6.9-15.6c-.6,2.3-1.1,4.1-1.1,4.1l-6.4-8.2h4.3c2.4-.1,3.8,1.8,3.2,4.1m-22-4.2l-6.5,8.3s-.5-1.9-1.1-4.1c-.6-2.3,.8-4.1,3.2-4.1h4.4v-.1Zm1.2-17.9l-6.1,7.8-6.1-7.8h12.2Zm12.2,0l-6.1,7.8-6.1-7.8h12.2Z"/><path d="M54.9,3.4l-6.1,7.8-6.1-7.8h12.2Zm14.4,25.6h-15.2l6.8-3.4,6.8-3.4,1.6,6.8Zm-1.6-6.8h-15.2l13.7-6.9,1.5,6.9Zm3.1,13.7h-15.2l13.7-6.9,1.5,6.9ZM20.6,22.2H5.4l1.5-6.9,13.7,6.9Z"/><path d="M19.1,29H3.9l1.5-6.8,6.8,3.4,6.9,3.4Zm-1.6,6.9H2.3l1.6-6.9,13.6,6.9Z"/><g class="cls-3"><path class="cls-2" d="M69.8,21.7l-1.4-6.4,1.7-8.3c.4-2,0-3.9-1.3-5.2-1.2-1.3-3.1-1.9-5.1-1.7l-9,1.1H18.4L9.4,.1c-2-.3-3.9,.4-5.1,1.7-1.3,1.3-1.7,3.2-1.3,5.2l1.8,8.3L0,36.2l6.6,13.5,20.9,11.1h18.1l20.9-11.1,6.6-13.5s-3.3-14.5-3.3-14.5Zm-4.9,26.4l-19.8,10.5H28l-19.8-10.5-5.9-12.2L6.9,15.3l-1.8-8.7c-.6-2.7,1.2-4.7,4-4.3l9.2,1.2H54.9l9.1-1.3c2.8-.4,4.6,1.6,4,4.3l-1.8,8.7,4.6,20.6-5.9,12.3Z"/></g></g></svg>