<svg version="1.1" id="Calque_1" xmlns="http://www.w3.org/2000/svg" x="0" y="0" viewBox="0 0 200 200" xml:space="preserve"><style>.st0{fill:#1a171b}.st2{fill:#0a0b0c}</style><path class="st0" d="M13.4 141.2h6.9c4.1 0 6.5 2.4 6.5 5.9 0 3.9-3.1 6-6.9 6h-2.8v5.1h-3.7v-17zm6.7 8.6c1.9 0 3-1.1 3-2.6 0-1.7-1.2-2.6-3-2.6h-2.9v5.2h2.9zM33.7 141.1h3.4l7.3 17.1h-3.9l-1.6-3.8h-7.2l-1.6 3.8h-3.8l7.4-17.1zm4 10l-2.3-5.5-2.3 5.5h4.6zM47.1 141.2H54c4.1 0 6.5 2.4 6.5 5.9 0 3.9-3.1 6-6.9 6h-2.8v5.1h-3.7v-17zm6.7 8.6c1.9 0 3-1.1 3-2.6 0-1.7-1.2-2.6-3-2.6h-2.9v5.2h2.9zM63.5 141.2h3.7v17h-3.7v-17zM71.5 141.2h12.8v3.3h-9.1v3.4h8v3.3h-8v3.6h9.2v3.3H71.5v-16.9zM87.7 141.2h7.8c2.2 0 3.8.6 5 1.7.9.9 1.5 2.3 1.5 3.9 0 2.7-1.5 4.5-3.6 5.3l4.2 6.1h-4.4l-3.6-5.4h-2.9v5.4H88v-17zm7.6 8.3c1.8 0 2.9-1 2.9-2.4 0-1.6-1.1-2.4-2.9-2.4h-3.7v4.9h3.7zM116.5 144.7h-5.2v-3.4h14.1v3.4h-5.2v13.5h-3.7v-13.5zM128.5 141.2h3.7v17h-3.7v-17zM135.7 149.8c0-4.9 3.8-8.8 8.9-8.8 3.1 0 4.9.8 6.7 2.3l-2.4 2.8c-1.3-1.1-2.5-1.7-4.4-1.7-2.7 0-4.9 2.4-4.9 5.3 0 3.1 2.1 5.4 5.1 5.4 1.4 0 2.6-.3 3.5-1v-2.4h-3.8v-3.2h7.4v7.4c-1.7 1.5-4.2 2.7-7.3 2.7-5.1-.1-8.8-3.8-8.8-8.8zM155.5 141.2h7.8c2.2 0 3.8.6 5 1.7.9.9 1.5 2.3 1.5 3.9 0 2.7-1.5 4.5-3.6 5.3l4.2 6.1H166l-3.6-5.4h-2.9v5.4h-3.7v-17zm7.5 8.3c1.8 0 2.9-1 2.9-2.4 0-1.6-1.1-2.4-2.9-2.4h-3.7v4.9h3.7zM173.1 141.2h12.8v3.3h-9.1v3.4h8v3.3h-8v3.6h9.2v3.3h-12.9v-16.9z"></path><g><g id="PT_NB_simple_2_"><path d="M127.3 88.6l18.2-9.1h-20.2l9.1-4.6 9.1-4.6h-20.2l18.2-9.1 2.4-11.6c.8-3.6-1.6-6.2-5.3-5.7l-12.2 1.5-8.1 10.4-8.1-10.4-8.2 10.4-8.1-10.4-8.1 10.4-8.1-10.4-12.2-1.5c-3.7-.5-6.1 2.1-5.3 5.7l2.5 11.6 18.2 9.1H60.6l9.1 4.6 9.1 4.6H58.6l18.2 9.1H56.5l7.9 16.2 26.3 13.9h22.7l26.3-13.9 7.9-16.2h-20.3zm-43.5-8.4s-.7-2.5-1.5-5.5 1.1-5.5 4.3-5.5h5.8l-8.6 11zm18.1 26.4L91.3 95.5h21.2l-10.6 11.1zm19.7-31.9c-.8 3-1.5 5.5-1.5 5.5l-8.5-11h5.8c3.1.1 5 2.5 4.2 5.5" fill="#fff"></path><path class="st2" d="M112.5 95.5l-10.6 11.1-10.6-11.1zM121.6 74.7c-.8 3-1.5 5.5-1.5 5.5l-8.5-11h5.8c3.1.1 5 2.5 4.2 5.5M92.3 69.3l-8.6 11s-.7-2.5-1.5-5.5 1.1-5.5 4.3-5.5h5.8zM93.9 45.4l-8.1 10.4-8.1-10.4zM110.1 45.4L102 55.8l-8.1-10.4zM126.4 45.4l-8.1 10.4-8.2-10.4zM145.5 79.5h-20.2l9.1-4.6 9-4.5zM143.4 70.4h-20.2l18.2-9.2zM147.6 88.6h-20.3l18.2-9.1zM80.8 70.4H60.6l2-9.2zM78.8 79.5H58.6l2-9.1 9.1 4.5zM76.7 88.6H56.5l2.1-9.1z"></path></g><path class="st0" d="M146.2 69.7l-1.9-8.5 2.3-11c.6-2.6 0-5.2-1.7-6.9-1.6-1.8-4.1-2.6-6.8-2.2l-12 1.5H77.9l-12-1.5c-2.7-.3-5.2.5-6.8 2.2-1.6 1.8-2.2 4.3-1.7 6.9l2.3 11L53.5 89l8.7 18L90 121.6h24.1l27.8-14.7 8.7-18-4.4-19.2zm-6.5 35.1l-26.3 13.9H90.7l-26.3-13.9-7.9-16.2 6.1-27.4-2.5-11.6c-.8-3.6 1.6-6.2 5.3-5.7l12.2 1.5h48.7l12.2-1.5c3.7-.5 6.1 2.1 5.3 5.7l-2.4 11.6 6.1 27.4-7.8 16.2z"></path></g></svg>