<svg xmlns="http://www.w3.org/2000/svg" xmlns:xlink="http://www.w3.org/1999/xlink" viewBox="0 0 367 60" xml:space="preserve"><path d="M108.9 15.1h10.2c6 0 9.6 3.5 9.6 8.7v.1c0 5.8-4.5 8.8-10.1 8.8h-4.2v7.5h-5.5V15.1zm9.9 12.7c2.8 0 4.4-1.6 4.4-3.8v-.1c0-2.5-1.7-3.8-4.5-3.8h-4.3v7.7h4.4zM138.9 15h5.1l10.7 25.2H149l-2.3-5.6h-10.6l-2.3 5.6h-5.6L138.9 15zm5.8 14.7-3.3-8.1-3.3 8.1h6.6zm13.9-14.6h10.2c6 0 9.6 3.5 9.6 8.7v.1c0 5.8-4.5 8.8-10.1 8.8h-4.2v7.5h-5.5V15.1zm9.9 12.7c2.8 0 4.4-1.6 4.4-3.8v-.1c0-2.5-1.7-3.8-4.5-3.8h-4.3v7.7h4.4zm14.3-12.7h5.5v25.1h-5.5V15.1zm11.8 0h18.9V20H200v5.1h11.8V30H200v5.3h13.6v4.9h-19.1V15.1zm23.9 0H230c3.2 0 5.7.9 7.3 2.5 1.4 1.4 2.1 3.4 2.1 5.7v.1c0 4-2.2 6.6-5.4 7.8l6.1 8.9h-6.4l-5.4-8H224v8h-5.5v-25zm11.1 12.2c2.7 0 4.2-1.4 4.2-3.5v-.1c0-2.4-1.6-3.6-4.3-3.6H224v7.2h5.6zm31.4-7.1h-7.6v-5.1h20.8v5.1h-7.6v20H261v-20zm17.6-5.1h5.5v25.1h-5.5V15.1zm10.7 12.6c0-7.2 5.5-13 13.1-13 4.5 0 7.2 1.2 9.8 3.4l-3.5 4.2c-1.9-1.6-3.7-2.5-6.5-2.5-4 0-7.2 3.5-7.2 7.8v.1c0 4.6 3.1 7.9 7.6 7.9 2 0 3.8-.5 5.2-1.5v-3.6h-5.5v-4.8h10.9v10.9c-2.6 2.2-6.1 4-10.7 4-7.9 0-13.2-5.5-13.2-12.9m29.1-12.6h11.5c3.2 0 5.7.9 7.3 2.5 1.4 1.4 2.1 3.4 2.1 5.7v.1c0 4-2.2 6.6-5.4 7.8l6.1 8.9h-6.4l-5.4-8h-4.3v8h-5.5v-25zm11.1 12.2c2.7 0 4.2-1.4 4.2-3.5v-.1c0-2.4-1.6-3.6-4.3-3.6h-5.5v7.2h5.6zm14.8-12.2h18.9V20h-13.4v5.1h11.8V30h-11.8v5.3h13.6v4.9h-19.1V15.1z"/><defs><path id="a" d="M2-.1h73v60.7H2z"/></defs><clipPath id="b"><use overflow="visible" xlink:href="#a"/></clipPath><path fill="#fff" d="m57.6 35.8 13.7-6.9H56.1l6.8-3.4 6.8-3.4H54.5l13.7-6.9L70 6.5c.6-2.7-1.2-4.7-4-4.3l-9.2 1.2-6.1 7.8-6.1-7.8-6.1 7.8-6.1-7.8-6.1 7.8-6.1-7.8L11 2.2c-2.8-.4-4.6 1.6-4 4.3l1.9 8.7 13.7 6.9H7.4l6.8 3.4 6.8 3.4H5.9l13.7 6.9H4.3L10.2 48 30 58.5h17.1L66.9 48l5.9-12.2H57.6zm-32.8-6.3s-.5-1.9-1.1-4.1c-.6-2.3.8-4.1 3.2-4.1h4.3l-6.4 8.2zm13.7 19.8-8-8.4h15.9l-7.9 8.4zm14.8-23.9c-.6 2.3-1.1 4.1-1.1 4.1l-6.4-8.2h4.3c2.4-.1 3.8 1.8 3.2 4.1" clip-path="url(#b)"/><path d="m46.4 41-7.9 8.3-8-8.3zm6.9-15.6c-.6 2.3-1.1 4.1-1.1 4.1l-6.4-8.2h4.3c2.4-.1 3.8 1.8 3.2 4.1m-22-4.2-6.5 8.3s-.5-1.9-1.1-4.1c-.6-2.3.8-4.1 3.2-4.1h4.4zm1.2-17.9-6.1 7.8-6.1-7.8zm12.2 0-6.1 7.8-6.1-7.8z" class="st1"/><path d="m56.9 3.3-6.1 7.8-6.1-7.8zm14.4 25.6H56.1l6.8-3.4 6.8-3.4zm-1.6-6.8H54.5l13.7-6.9zm3.1 13.7H57.6l13.7-6.9zM22.6 22.1H7.4l1.5-6.9z" class="st1"/><path d="M21.1 28.9H5.9l1.5-6.8 6.8 3.4zm-1.6 6.9H4.3l1.6-6.9z" class="st1"/><path fill="#110b13" d="m71.8 21.6-1.4-6.4 1.7-8.3c.4-2 0-3.9-1.3-5.2C69.6.4 67.7-.2 65.7 0l-9 1.1H20.4l-9-1.1c-2-.3-3.9.4-5.1 1.7C5 3 4.6 4.9 5 6.9l1.8 8.3L2 36.1l6.6 13.5 20.9 11.1h18.1l20.9-11.1 6.6-13.5-3.3-14.5zM66.9 48 47.1 58.5H30L10.2 48 4.3 35.8l4.6-20.6-1.8-8.7c-.6-2.7 1.2-4.7 4-4.3l9.2 1.2h36.6L66 2.1c2.8-.4 4.6 1.6 4 4.3l-1.8 8.7 4.6 20.6L66.9 48z" clip-path="url(#b)"/></svg>