<?xml version="1.0" encoding="utf-8"?>
<!-- Generator: Adobe Illustrator 27.0.0, SVG Export Plug-In . SVG Version: 6.00 Build 0)  -->
<svg version="1.1" id="Calque_1" xmlns="http://www.w3.org/2000/svg" xmlns:xlink="http://www.w3.org/1999/xlink" x="0px" y="0px"
	 viewBox="0 0 75.7 60" style="enable-background:new 0 0 75.7 60;" xml:space="preserve">
<style type="text/css">
	.st0{clip-path:url(#SVGID_00000048487391327510005000000012083105979940877716_);fill:#FFFFFF;}
	.st1{clip-path:url(#SVGID_00000157308858839500570280000011699101349925202101_);fill:#110B13;}
</style>
<g>
	<defs>
		<rect id="SVGID_1_" x="2" y="-0.1" width="73" height="60.7"/>
	</defs>
	<clipPath id="SVGID_00000041273947390831965640000001454982820253745032_">
		<use xlink:href="#SVGID_1_"  style="overflow:visible;"/>
	</clipPath>
	<path style="clip-path:url(#SVGID_00000041273947390831965640000001454982820253745032_);fill:#FFFFFF;" d="M57.6,35.8l13.7-6.9
		H56.1l6.8-3.4l6.8-3.4H54.5l13.7-6.9L70,6.5c0.6-2.7-1.2-4.7-4-4.3l-9.2,1.2l-6.1,7.8l-6.1-7.8l-6.1,7.8l-6.1-7.8l-6.1,7.8
		l-6.1-7.8L11,2.2C8.2,1.8,6.4,3.8,7,6.5l1.9,8.7l13.7,6.9H7.4l6.8,3.4l6.8,3.4H5.9l13.7,6.9H4.3L10.2,48L30,58.5h17.1L66.9,48
		l5.9-12.2H57.6z M24.8,29.5c0,0-0.5-1.9-1.1-4.1c-0.6-2.3,0.8-4.1,3.2-4.1h4.3C31.2,21.3,24.8,29.5,24.8,29.5z M38.5,49.3l-8-8.4
		h15.9C46.4,40.9,38.5,49.3,38.5,49.3z M53.3,25.4c-0.6,2.3-1.1,4.1-1.1,4.1l-6.4-8.2h4.3C52.5,21.2,53.9,23.1,53.3,25.4"/>
</g>
<path d="M46.4,41l-7.9,8.3l-8-8.3H46.4z M53.3,25.4c-0.6,2.3-1.1,4.1-1.1,4.1l-6.4-8.2h4.3C52.5,21.2,53.9,23.1,53.3,25.4
	 M31.3,21.2l-6.5,8.3c0,0-0.5-1.9-1.1-4.1c-0.6-2.3,0.8-4.1,3.2-4.1L31.3,21.2L31.3,21.2z M32.5,3.3l-6.1,7.8l-6.1-7.8H32.5z
	 M44.7,3.3l-6.1,7.8l-6.1-7.8H44.7z"/>
<path d="M56.9,3.3l-6.1,7.8l-6.1-7.8L56.9,3.3z M71.3,28.9H56.1l6.8-3.4l6.8-3.4L71.3,28.9z M69.7,22.1H54.5l13.7-6.9L69.7,22.1z
	 M72.8,35.8H57.6l13.7-6.9L72.8,35.8z M22.6,22.1H7.4l1.5-6.9L22.6,22.1z"/>
<path d="M21.1,28.9H5.9l1.5-6.8l6.8,3.4L21.1,28.9z M19.5,35.8H4.3l1.6-6.9L19.5,35.8z"/>
<g>
	<defs>
		<rect id="SVGID_00000048462410982440935010000012866321867640286102_" x="2" y="-0.1" width="73" height="60.7"/>
	</defs>
	<clipPath id="SVGID_00000049910007713124179230000006121392511146359995_">
		<use xlink:href="#SVGID_00000048462410982440935010000012866321867640286102_"  style="overflow:visible;"/>
	</clipPath>
	<path style="clip-path:url(#SVGID_00000049910007713124179230000006121392511146359995_);fill:#110B13;" d="M71.8,21.6l-1.4-6.4
		l1.7-8.3c0.4-2,0-3.9-1.3-5.2c-1.2-1.3-3.1-1.9-5.1-1.7l-9,1.1H20.4l-9-1.1c-2-0.3-3.9,0.4-5.1,1.7C5,3,4.6,4.9,5,6.9l1.8,8.3
		L2,36.1l6.6,13.5l20.9,11.1h18.1l20.9-11.1l6.6-13.5C75.1,36.1,71.8,21.6,71.8,21.6z M66.9,48L47.1,58.5H30L10.2,48L4.3,35.8
		l4.6-20.6L7.1,6.5c-0.6-2.7,1.2-4.7,4-4.3l9.2,1.2h36.6L66,2.1c2.8-0.4,4.6,1.6,4,4.3l-1.8,8.7l4.6,20.6L66.9,48z"/>
</g>
</svg>
